<?xml version="1.0" encoding="utf-8"?>
<!-- Generator: Adobe Illustrator 23.0.3, SVG Export Plug-In . SVG Version: 6.00 Build 0)  -->
<svg version="1.1" id="Livello_1" xmlns="http://www.w3.org/2000/svg" xmlns:xlink="http://www.w3.org/1999/xlink" x="0px" y="0px"
	 viewBox="0 0 800 800" style="enable-background:new 0 0 800 800;" xml:space="preserve">
<style type="text/css">
	.st0{enable-background:new    ;}
	.st1{fill:#4D4D4D;}
</style>
<title>Tavola disegno 2</title>
<g class="st0">
	<path d="M266.8,468.3V283.5h47.6l25,64.9c1.4,3.8,2.9,8.2,4.6,13.2c1.7,4.9,3.6,10.7,5.7,17.1l5.1,16.3c-1.8-16-3.2-29.8-4.2-41.2
		c-1-11.4-1.4-21-1.4-28.7v-41.5h47.6v184.8h-47.6l-25.1-68c-2.6-7.3-5-14.1-7.1-20.4c-2.1-6.3-4-12.4-5.6-18.1
		c1,13,1.8,24.3,2.3,34c0.5,9.7,0.7,18.1,0.7,25.4v47.2H266.8z"/>
	<path d="M473,298.8c0,7.6-2.8,14.1-8.3,19.6c-5.7,5.4-12.2,8.1-19.7,8.1c-7.7,0-14.4-2.8-19.9-8.3c-5.4-5.7-8.1-12.3-8.1-19.9
		c0-7.7,2.7-14.3,8.1-19.7c5.7-5.4,12.2-8.1,19.7-8.1c7.9,0,14.6,2.8,20,8.3C470.3,284.2,473,290.9,473,298.8z M469,468.3h-48.1
		V338.9H469V468.3z"/>
</g>
<g class="st0">
	<path d="M573.3,468.3h-50.9l-42.4-184.8h52.4l9.1,52.8c3.4,20.2,6.2,42.8,8.3,67.7c0.9-11.1,2-21.5,3.2-31.1
		c1.3-9.7,2.8-19.1,4.5-28.2l11.8-61.2h54.2L573.3,468.3z"/>
</g>
<g class="st0">
	<path d="M742.6,405.6c0,19.9-5.5,35.8-16.5,47.6c-11,11.8-25.8,17.7-44.3,17.7c-18.2,0-32.7-6-43.4-18.1
		c-10.7-12.1-16-28.4-16-48.8c0-20.4,5.5-36.8,16.4-49.2c10.9-12.4,25.3-18.7,43.2-18.7c18.9,0,33.8,6.2,44.5,18.6
		C737.2,367.1,742.6,384,742.6,405.6z M696,404c0-4.8-0.3-9.1-1-13c-0.6-3.9-1.6-7.2-2.8-9.9s-2.6-4.9-4.3-6.4
		c-1.7-1.5-3.6-2.3-5.6-2.3c-4.1,0-7.3,2.9-9.8,8.6c-2.5,5-3.7,12.6-3.7,22.6c0,9.9,1.2,17.4,3.7,22.6c2.5,5.7,5.8,8.6,9.9,8.6
		c3.9,0,7.1-2.8,9.7-8.5C694.7,420.1,696,412.6,696,404z"/>
</g>
<polygon points="239.3,283.1 50,283.1 50,472.3 101.4,472.3 101.4,513.8 187.9,513.8 187.9,472.3 239.3,472.3 "/>
<circle class="st1" cx="189" cy="330.2" r="26.5"/>
<circle class="st1" cx="100.3" cy="330.2" r="26.5"/>
<path class="st1" d="M202,384.2L202,384.2H86.5v0.1c-11,1.2-19.6,15.2-19.6,32.3s8.7,31.1,19.6,32.3l0,0H202l0,0
	c11.3-0.6,20.4-14.9,20.4-32.4S213.4,384.8,202,384.2z M207.1,432.2c-1.8,2.8-3.8,4.4-5.7,4.5h-38v5.8h-18.8v-5.8h-12.8v5.8h-18.9
	v-5.8h-25h-0.3c-3.9-0.4-9.4-8.3-9.4-20.1s5.5-19.6,9.4-20.1h0.3h39.4v-6.6h18.9v6.6H159v-6.6h18.9v6.6h23.6
	c1.8,0.1,3.9,1.8,5.7,4.5c2.5,4,4,9.6,4,15.6S209.6,428.2,207.1,432.2L207.1,432.2z"/>
</svg>
